<?xml version="1.0" encoding="UTF-8"?>
<svg id="Capa_2" data-name="Capa 2" xmlns="http://www.w3.org/2000/svg" viewBox="0 0 510.24 235.41">
  <g id="Layer_2" data-name="Layer 2">
    <g>
      <g>
        <path d="M257.67,93.19h-24.61V33.28h24.61c18.85,0,32.01,12.32,32.01,29.95s-13.17,29.96-32.01,29.96Zm-22.29-2.32h22.29c17.76,0,29.7-11.11,29.7-27.64s-11.93-27.64-29.7-27.64h-22.29v55.27Z"/>
        <path d="M255.12,126.47c-34.87,0-63.23-28.37-63.23-63.23S220.25,0,255.12,0s63.23,28.37,63.23,63.23-28.37,63.23-63.23,63.23Zm0-124.15c-33.59,0-60.92,27.33-60.92,60.92s27.33,60.92,60.92,60.92,60.92-27.33,60.92-60.92S288.71,2.32,255.12,2.32Z"/>
        <path d="M280.39,93.19c-17.54,0-30.77-12.88-30.77-29.96s13.26-29.96,30.85-29.96c8.83,0,16.49,3.07,21.56,8.63l-1.71,1.56c-4.63-5.08-11.68-7.87-19.85-7.87-16.53,0-28.53,11.63-28.53,27.64s11.97,27.64,28.45,27.64c8.18,0,15.26-2.83,19.93-7.95l1.71,1.56c-5.12,5.62-12.81,8.71-21.65,8.71Z"/>
        <path d="M238,93.19h-24.61V33.28h24.61c18.85,0,32.01,12.32,32.01,29.95s-13.17,29.96-32.01,29.96Zm-22.29-2.32h22.29c17.76,0,29.7-11.11,29.7-27.64s-11.93-27.64-29.7-27.64h-22.29v55.27Z"/>
      </g>
      <g>
        <path d="M0,191.87l.26-35.27,8.25,.26c6.89,0,12.33,1.64,16.18,4.89,3.81,3.21,5.74,7.73,5.74,13.42,0,5.01-1.58,9.08-4.68,12.12-3.11,3.04-7.28,4.58-12.4,4.58H0Zm5.63-1.67l4.65,.26c2.25,0,4.13-.2,5.59-.61,1.51-.42,2.79-1.07,3.8-1.94,1.57-1.38,2.78-3.27,3.61-5.62,.81-2.3,1.23-5.01,1.23-8.03,0-5.1-1.37-9.08-4.06-11.84-2.69-2.76-6.61-4.16-11.62-4.16h-3.21v31.94Z"/>
        <path d="M38.17,191.87l.26-35.27,8.25,.26c6.89,0,12.33,1.64,16.18,4.89,3.81,3.21,5.74,7.73,5.74,13.42,0,5.01-1.58,9.08-4.68,12.12-3.11,3.04-7.28,4.58-12.4,4.58h-13.35Zm5.63-1.67l4.65,.26c2.25,0,4.13-.2,5.59-.61,1.51-.42,2.79-1.07,3.8-1.94,1.57-1.38,2.78-3.27,3.61-5.62,.81-2.3,1.23-5.01,1.23-8.03,0-5.1-1.37-9.08-4.06-11.84-2.69-2.76-6.61-4.16-11.62-4.16h-3.21v31.94Z"/>
        <path d="M90.69,192.76c-4.77,0-8.78-1.73-11.93-5.14-3.16-3.43-4.77-7.89-4.77-13.25s1.65-9.62,4.89-13.09c3.24-3.46,7.3-5.21,12.08-5.21,2.91,0,5.47,.6,7.6,1.79,2.02,1.13,3.75,2.84,5.12,5.07l-1.44,.7c-.76-2.01-2.16-3.63-3.8-4.72-1.76-1.18-3.81-1.77-6.11-1.77-3.85,0-6.94,1.61-9.19,4.79-2.2,3.11-3.31,7.38-3.31,12.69s1.07,9.2,3.17,12.07c2.15,2.94,5.2,4.43,9.06,4.43,2.57,0,4.89-.72,6.89-2.15,1.87-1.34,3.44-3.28,4.65-5.78l1.16,1.09c-1.44,2.45-3.3,4.62-5.62,6.13-2.4,1.56-5.25,2.35-8.46,2.35Z"/>
        <path d="M127.73,191.87l.26-35.27,8.25,.26c6.89,0,12.33,1.64,16.18,4.89,3.81,3.21,5.74,7.73,5.74,13.42,0,5.01-1.58,9.08-4.68,12.12-3.11,3.04-7.28,4.58-12.4,4.58h-13.35Zm5.63-1.67l4.65,.26c2.25,0,4.13-.2,5.59-.61,1.51-.42,2.79-1.07,3.8-1.94,1.57-1.38,2.78-3.27,3.61-5.62,.81-2.3,1.23-5.01,1.23-8.03,0-5.1-1.37-9.08-4.06-11.84-2.69-2.76-6.61-4.16-11.62-4.16h-3.21v31.94Z"/>
        <polygon points="165.89 191.87 166.16 156.6 187.57 156.86 187.31 158.53 171.84 158.26 171.58 172.6 186.46 172.86 186.19 174.55 171.84 174.29 171.58 190.2 187.57 190.46 187.35 191.87 165.89 191.87"/>
        <polygon points="191.32 156.5 197.61 156.86 207.29 182.81 217.07 156.43 219.38 156.82 205.55 191.64 191.32 156.5"/>
        <polygon points="224.7 191.87 224.97 156.6 246.38 156.86 246.12 158.53 230.65 158.26 230.39 172.6 245.27 172.86 245 174.55 230.65 174.29 230.39 190.2 246.38 190.46 246.16 191.87 224.7 191.87"/>
        <polygon points="254.91 191.87 255.17 156.6 260.86 156.86 260.6 190.2 276.59 190.46 276.37 191.87 254.91 191.87"/>
        <path d="M294.88,192.76c-2.44,0-4.76-.45-6.9-1.33-2.13-.87-4.07-2.18-5.79-3.89-1.68-1.68-2.98-3.66-3.86-5.89-.88-2.23-1.33-4.66-1.33-7.23s.45-5.05,1.34-7.28c.88-2.22,2.19-4.19,3.9-5.86s3.66-2.97,5.82-3.87c2.16-.9,4.45-1.35,6.81-1.35,1.9,0,3.77,.3,5.56,.89,1.79,.59,3.5,1.46,5.06,2.6,2.35,1.7,4.17,3.85,5.42,6.4,1.25,2.55,1.89,5.4,1.89,8.47,0,2.58-.46,5.02-1.35,7.23-.89,2.21-2.2,4.19-3.91,5.88-1.72,1.71-3.69,3.02-5.82,3.89-2.14,.88-4.44,1.33-6.84,1.33Zm0-35.67c-3.53,0-6.46,1.65-8.71,4.9-2.19,3.18-3.3,7.36-3.3,12.44s1.11,9.23,3.3,12.41c2.25,3.25,5.18,4.9,8.71,4.9s6.46-1.64,8.71-4.89c2.19-3.16,3.3-7.35,3.3-12.42s-1.11-9.26-3.29-12.43c-2.24-3.26-5.17-4.9-8.72-4.9Z"/>
        <path d="M320.59,191.87l.26-35.27,12.36,.26c3.69,0,6.62,.92,8.71,2.73,2.06,1.78,3.1,4.27,3.1,7.39s-.96,5.47-2.85,7.18c-1.91,1.74-4.61,2.62-8.01,2.62h-7.62l-.26,15.08h-5.69Zm5.69-16.25l3.64,.26c3.17,0,5.6-.71,7.21-2.1,1.64-1.42,2.47-3.56,2.47-6.35,0-3.16-.81-5.56-2.42-7.15-1.61-1.58-4.04-2.39-7.25-2.39h-3.64v17.73Z"/>
        <polygon points="355.47 163.06 354.41 163.06 354.2 192.13 352.13 191.87 352.39 156.6 359.37 156.86 369.59 182.82 380.06 156.44 386.16 156.85 385.91 192.13 380.38 191.87 380.64 163.32 379.67 162.92 367.7 192.13 355.47 163.06"/>
        <polygon points="396.3 191.87 396.56 156.6 417.98 156.86 417.71 158.53 402.25 158.26 401.99 172.6 416.86 172.86 416.6 174.55 402.25 174.29 401.99 190.2 417.98 190.46 417.76 191.87 396.3 191.87"/>
        <polygon points="426.4 191.87 426.66 156.6 432.17 156.86 451.62 183.26 451.62 156.6 453.81 156.86 453.54 191.87 450.97 191.87 428.58 161.62 428.58 192.13 426.4 191.87"/>
        <polygon points="468.94 191.87 469.2 158.53 459.43 158.26 459.69 156.6 484.34 156.86 484.08 158.53 474.83 158.26 474.57 191.87 468.94 191.87"/>
        <path d="M498.94,192.76c-2.38,0-4.45-.46-6.16-1.36-1.6-.85-3.04-2.17-4.28-3.93l1.95-1.06c.43,1.34,1.45,2.48,2.67,3.31,1.34,.92,2.82,1.39,4.38,1.39,2.11,0,3.86-.68,5.19-2.03,1.34-1.34,2.01-3.08,2.01-5.17,0-3.34-2.87-6.21-8.53-8.54-2.85-1.16-4.88-2.47-6.03-3.88-1.12-1.37-1.69-3.15-1.69-5.29,0-2.95,.99-5.4,2.95-7.28,1.96-1.89,4.55-2.85,7.7-2.85,2.37,0,4.46,.53,6.22,1.59,1.66,.99,2.93,2.4,3.78,4.19l-1.61,.81c-.25-1.47-1.17-2.73-2.34-3.62-1.3-1-2.87-1.51-4.66-1.51-1.93,0-3.54,.64-4.79,1.89-1.25,1.25-1.87,2.9-1.87,4.9,0,1.61,.53,3,1.56,4.14,1,1.1,2.77,2.18,5.41,3.31,3.89,1.68,6.47,3.28,7.66,4.76,1.17,1.44,1.77,3.34,1.77,5.64,0,3.06-1.07,5.61-3.18,7.59-2.12,1.99-4.85,3-8.12,3Z"/>
      </g>
      <g>
        <path d="M66.84,235.06v-16.69h6.62c1.13,0,2.05,.23,2.78,.68s1.26,1.03,1.61,1.73c.35,.71,.52,1.43,.52,2.18,0,.92-.21,1.7-.65,2.34-.43,.64-1.03,1.07-1.78,1.3v-.58c1.05,.24,1.84,.74,2.39,1.49,.55,.76,.82,1.62,.82,2.59s-.19,1.85-.57,2.59c-.38,.74-.94,1.32-1.69,1.74s-1.66,.63-2.76,.63h-7.29Zm2.83-10.02h3.76c.4,0,.76-.08,1.08-.24,.32-.15,.57-.38,.76-.68,.18-.3,.28-.67,.28-1.11,0-.58-.19-1.06-.56-1.45-.37-.38-.89-.58-1.55-.58h-3.76v4.06Zm0,7.39h4.12c.49,0,.92-.1,1.31-.3,.38-.2,.69-.47,.91-.83s.33-.78,.33-1.28c0-.45-.1-.85-.29-1.21s-.47-.64-.85-.85c-.37-.21-.81-.32-1.33-.32h-4.2v4.79Z"/>
        <path d="M94.21,235.41c-1.33,0-2.49-.27-3.5-.81s-1.8-1.3-2.36-2.28c-.57-.98-.85-2.13-.85-3.45v-10.47l2.83-.02v10.42c0,.63,.11,1.19,.32,1.68,.21,.5,.5,.91,.86,1.26,.36,.34,.78,.6,1.25,.78,.47,.17,.95,.27,1.46,.27s1.02-.09,1.48-.27c.47-.18,.89-.45,1.25-.79,.37-.34,.65-.76,.86-1.26,.21-.49,.32-1.05,.32-1.67v-10.42h2.83v10.49c0,1.32-.28,2.47-.85,3.45-.56,.98-1.35,1.74-2.36,2.28s-2.18,.81-3.51,.81Z"/>
        <path d="M110.44,235.06v-16.69h2.79v16.69h-2.79Z"/>
        <path d="M122.97,235.06v-16.69h2.79v14.07h7.37v2.62h-10.16Z"/>
        <path d="M141.14,235.06v-16.69h5.32c.14,0,.41,0,.83,.01,.41,0,.81,.03,1.2,.08,1.33,.17,2.44,.64,3.36,1.41,.92,.77,1.61,1.75,2.08,2.94,.47,1.19,.71,2.49,.71,3.91s-.24,2.71-.71,3.9c-.47,1.19-1.16,2.17-2.08,2.94-.91,.77-2.03,1.24-3.36,1.41-.38,.05-.77,.07-1.19,.08s-.69,.01-.83,.01h-5.32Zm2.84-2.63h2.48c.23,0,.52-.01,.89-.03,.36-.01,.68-.05,.96-.1,.78-.15,1.43-.5,1.92-1.05,.49-.56,.86-1.24,1.09-2.03s.36-1.63,.36-2.5-.12-1.75-.36-2.56c-.24-.8-.61-1.46-1.11-2-.5-.54-1.13-.89-1.91-1.03-.28-.06-.6-.1-.96-.11-.36-.02-.65-.02-.89-.02h-2.48v11.43Z"/>
        <path d="M163.64,235.06v-16.69h2.79v16.69h-2.79Z"/>
        <path d="M175.93,235.06v-16.69h2.83l7.74,11.77v-11.77h2.83v16.69h-2.83l-7.74-11.77v11.77h-2.83Z"/>
        <path d="M205.49,235.41c-1.08,0-2.09-.19-3.04-.58s-1.78-.95-2.49-1.69c-.72-.74-1.27-1.65-1.68-2.73s-.6-2.31-.6-3.7c0-1.83,.34-3.38,1.02-4.68,.68-1.29,1.61-2.28,2.79-2.98,1.18-.69,2.52-1.04,4-1.04,2.06,0,3.68,.48,4.88,1.43s2.02,2.3,2.44,4.02l-2.85,.45c-.32-.99-.83-1.78-1.55-2.37s-1.64-.89-2.75-.89c-1.12-.02-2.05,.23-2.79,.73-.74,.5-1.3,1.21-1.68,2.12-.38,.91-.56,1.98-.56,3.2s.19,2.28,.56,3.18c.37,.9,.93,1.6,1.68,2.1,.74,.5,1.68,.76,2.8,.77,.84,.01,1.58-.14,2.22-.46,.63-.31,1.15-.79,1.55-1.43s.67-1.43,.81-2.39h-2.94v-2.19h5.91c.02,.12,.03,.3,.03,.54,0,.24,.01,.38,.01,.43,0,1.58-.31,2.98-.93,4.2-.63,1.22-1.52,2.18-2.67,2.88-1.16,.69-2.54,1.04-4.16,1.04Z"/>
        <path d="M232.26,235.06v-16.69h10.78v2.62h-7.99v4.12h6.59v2.62h-6.59v4.72h7.99v2.62h-10.78Z"/>
        <path d="M250.45,235.06l5.66-8.44-5.49-8.25h3.42l3.8,5.88,3.77-5.88h3.44l-5.49,8.25,5.63,8.44h-3.42l-3.93-6.06-3.94,6.06h-3.44Z"/>
        <path d="M273.07,235.06v-16.69h6.89c.16,0,.37,0,.63,.02s.49,.04,.71,.07c.96,.15,1.76,.47,2.39,.96s1.09,1.12,1.4,1.87c.3,.75,.46,1.59,.46,2.51s-.16,1.74-.46,2.5c-.31,.75-.78,1.38-1.41,1.87-.63,.5-1.43,.82-2.38,.96-.22,.03-.46,.06-.72,.07-.26,.02-.46,.02-.62,.02h-4.1v5.83h-2.79Zm2.79-8.44h3.99c.15,0,.33,0,.52-.02s.37-.05,.54-.09c.46-.12,.83-.32,1.09-.61s.46-.63,.57-1c.11-.37,.16-.73,.16-1.09s-.06-.72-.16-1.09c-.11-.38-.3-.71-.57-1s-.63-.5-1.09-.61c-.16-.05-.34-.07-.54-.09-.19-.01-.37-.02-.52-.02h-3.99v5.63Z"/>
        <path d="M293.89,235.06v-16.69h10.78v2.62h-7.99v4.12h6.59v2.62h-6.59v4.72h7.99v2.62h-10.78Z"/>
        <path d="M313.48,235.06v-16.69h6.89c.16,0,.37,0,.63,.02s.49,.04,.71,.07c.96,.15,1.76,.47,2.39,.96s1.09,1.12,1.4,1.87c.3,.75,.46,1.59,.46,2.51,0,1.36-.34,2.53-1.03,3.5-.69,.98-1.74,1.58-3.16,1.82l-1.2,.1h-4.3v5.83h-2.79Zm2.79-8.44h3.99c.15,0,.33,0,.52-.02s.37-.05,.54-.09c.46-.12,.83-.32,1.09-.61s.46-.63,.57-1c.11-.37,.16-.73,.16-1.09s-.06-.72-.16-1.09c-.11-.38-.3-.71-.57-1s-.63-.5-1.09-.61c-.16-.05-.34-.07-.54-.09-.19-.01-.37-.02-.52-.02h-3.99v5.63Zm6.79,8.44l-3.29-6.79,2.84-.63,3.62,7.42h-3.16Z"/>
        <path d="M335.03,235.06v-16.69h2.79v16.69h-2.79Z"/>
        <path d="M347.34,235.06v-16.69h10.78v2.62h-7.99v4.12h6.59v2.62h-6.59v4.72h7.99v2.62h-10.78Z"/>
        <path d="M366.92,235.06v-16.69h2.83l7.74,11.77v-11.77h2.83v16.69h-2.83l-7.74-11.77v11.77h-2.83Z"/>
        <path d="M396.65,235.41c-1.67,0-3.1-.37-4.29-1.1-1.19-.73-2.1-1.74-2.74-3.05-.64-1.3-.96-2.82-.96-4.54s.32-3.24,.96-4.55c.64-1.3,1.55-2.32,2.74-3.05,1.19-.73,2.62-1.1,4.29-1.1,1.92,0,3.53,.49,4.81,1.44,1.28,.96,2.18,2.26,2.7,3.89l-2.82,.77c-.32-1.09-.87-1.94-1.66-2.56-.78-.61-1.79-.92-3.03-.92-1.12,0-2.05,.25-2.8,.75s-1.31,1.21-1.68,2.12c-.38,.91-.56,1.97-.58,3.2,0,1.22,.19,2.28,.56,3.19,.37,.91,.94,1.61,1.69,2.12s1.68,.75,2.8,.75c1.25,0,2.26-.31,3.03-.93,.78-.62,1.34-1.47,1.66-2.55l2.82,.77c-.52,1.63-1.42,2.93-2.7,3.89-1.29,.96-2.89,1.44-4.81,1.44Z"/>
        <path d="M412.74,235.06v-16.69h10.78v2.62h-7.99v4.12h6.59v2.62h-6.59v4.72h7.99v2.62h-10.78Z"/>
        <path d="M437.58,235.41c-1.22,0-2.32-.21-3.3-.64-.98-.43-1.78-1.04-2.41-1.83s-1.03-1.73-1.2-2.82l2.9-.44c.25,.99,.76,1.75,1.52,2.29,.77,.54,1.66,.81,2.66,.81,.59,0,1.16-.09,1.68-.28s.95-.46,1.28-.81,.49-.79,.49-1.31c0-.23-.04-.45-.11-.64-.08-.2-.19-.37-.34-.53-.15-.15-.34-.29-.58-.42-.24-.12-.51-.24-.82-.33l-4.31-1.27c-.37-.11-.77-.25-1.2-.43s-.83-.43-1.22-.76c-.38-.32-.69-.73-.94-1.23-.24-.5-.37-1.11-.37-1.84,0-1.08,.28-1.98,.82-2.71,.55-.73,1.28-1.28,2.21-1.64,.92-.36,1.95-.54,3.07-.54,1.14,.01,2.17,.2,3.06,.59s1.64,.94,2.24,1.66,1.03,1.6,1.27,2.63l-3,.52c-.12-.59-.36-1.09-.71-1.5-.36-.41-.78-.73-1.29-.95-.51-.21-1.05-.33-1.62-.34-.56-.01-1.07,.07-1.55,.25-.48,.17-.86,.42-1.15,.75-.29,.32-.43,.7-.43,1.13,0,.41,.12,.74,.37,1s.55,.46,.92,.61c.37,.15,.74,.28,1.12,.37l2.99,.83c.41,.11,.87,.25,1.38,.44,.51,.19,1,.45,1.47,.78,.47,.33,.86,.77,1.17,1.31s.46,1.23,.46,2.06-.18,1.62-.54,2.28c-.36,.65-.84,1.2-1.46,1.63-.61,.43-1.3,.76-2.09,.97s-1.61,.33-2.46,.33Z"/>
      </g>
    </g>
  </g>
</svg>