<?xml version="1.0" encoding="UTF-8"?>
<svg id="Capa_2" data-name="Capa 2" xmlns="http://www.w3.org/2000/svg" viewBox="0 0 89.19 89.04">
  <g id="Capa_1-2" data-name="Capa 1">
    <path d="M51.33,37.29c.57,2.6,1.34,5.19,1.37,7.89,1.6,.12,2.91,1.36,4.27,1.94,4.84,2.07,9.45-1.22,14.02,3.61,3.1,3.27,1.51,5.25,2.7,8.6,.08,.22,.82,1.76,.9,1.82,.46,.33,3.64-1.46,4.38-1.75,3.64-1.45,8.4-1.17,9.82,3.14,1.38,4.2-.97,6.89-4.04,9.19-5.02,3.77-11.5,7.71-17,10.79-4.58,2.57-12.15,6.92-17.41,6.48-8.14-.67-16.4-5.77-23.81-8.5-2.48-.91-5.43-1.08-7.94-.25,.25,2.78-.58,5.65-3.46,6.59-1.65,.54-7.52,.81-9.33,.61-3.1-.33-4.12-3.07-4.4-5.77C.69,75.03,.2,66.71,.03,60.01c-.08-2.97-.19-6,3.02-7.39,1.32-.57,6.27-.83,7.94-.87,3.54-.09,5.86,1.87,6.11,5.44,3.28-.92,6.63-1.94,10.05-2.04-.05-6.01,5.03-9.5,10.74-9.05,1.1,.09,2.17,.56,3.18,.66,3.12,.33,5.36-1.11,8.24-1.93-.28-3.48-1.44-6.74-2.51-10.02-5.45,1.88-10.88,3.03-16.35,.42-8.44-4.03-12.62-16.71-14.54-25.23-.35-1.57-1.64-7.52-1.38-8.7C14.85-.05,15.97-.04,17.09,.02c2.78,.13,6.62,1.05,9.38,1.69,8.66,2,19.11,5.43,23.61,13.67,2.59-2.31,5.57-3.91,8.92-4.86,7.04-2,19.35-2.03,26.52-.53,3.08,.64,2.19,2.13,1.24,4.34-3.41,7.98-11.65,21.46-19.92,24.81-5.35,2.17-10.68,.92-15.52-1.85Zm-4.07-8.59c2.63-8.69-.06-14.53-7.75-18.79-6.4-3.54-14.04-4.97-21.16-6.29,1.29,7.94,3.5,17.67,8.5,24.15,4.5,5.84,11.42,7.01,17.93,3.75-3.93-4.87-8-9.43-13.12-13.08-1.14-.82-4.28-2.19-4.46-3.46-.22-1.52,1.41-2.16,2.76-1.62,4.01,1.61,10.35,7.79,13.36,11.04,1.05,1.14,2.22,3,3.27,3.96,.22,.21,.32,.41,.68,.33Zm36.15-15.59c-7.75-.7-16.15-1.43-23.72,.79-3.15,.92-6.47,2.64-8.3,5.46,.47,2.74,.25,5.49-.29,8.21,4.08-2.5,8.31-4.85,12.82-6.5,1.05-.38,5.67-1.98,6.44-1.83,1.7,.32,2.08,2.47,.45,3.3-1.19,.61-4.01,1.13-5.54,1.69-4.02,1.47-8.45,3.71-12.04,6.04-.47,.3-2.88,1.82-2.81,2.14,.07,.35,1.77,1.42,2.18,1.67,10.5,6.37,17.3,.6,23.43-7.89,2.92-4.04,5.35-8.53,7.37-13.08Zm-22.36,54.45l10.36-4.88c-.47-1.38-1.3-2.62-1.49-4.1-.28-2.08,.33-3.64-1.32-5.45-2.58-2.82-6.56-1.47-9.86-1.89-3.09-.39-5.31-2.95-8.42-2.9-2.23,.04-4.19,1.6-6.55,1.82-3.43,.32-6.41-1.37-9.53-.26-2.25,.8-4.1,3.02-3.55,5.49,7.39,1.01,15.06,2.29,22.01,5.06,3.4,1.36,7.7,3.07,8.37,7.11ZM11.29,55.2c-1.55,.47-6.45-.14-7.42,.95-.67,.75-.47,2.39-.44,3.39,.21,6.84,.78,14.61,1.36,21.46,.11,1.3,.16,2.8,1.7,3.04,.93,.15,5.96-.1,6.88-.33s1.63-.6,1.79-1.59l-1.58-25.28c-.17-1-1.25-1.93-2.29-1.65Zm29.25,16.15c-1.22-1.39-.59-3.26,1.4-3.11,3.57,.8,7.72,3.26,11.17,3.98,3.97,.82,6.4-3.95,2.8-6.41-4.2-2.88-13.93-5.13-19.05-6.03-5.24-.92-9.19-1.58-14.47-.45-.75,.16-5.05,1.17-5.18,1.61l1.11,15.68c3.38-.69,6.65-.36,9.87,.86,6.89,2.61,15.06,7.53,22.58,8.15,4.17,.34,13.06-4.83,16.88-7.02,4.6-2.65,12.94-7.45,16.65-10.91,2.8-2.61,1.11-6.48-2.72-5.65l-20.72,9.33c-2.11,3.16-4.39,4.97-8.43,4.24l-11.9-4.26Z" style="fill: #0f1931;"/>
  </g>
</svg>