<?xml version="1.0" encoding="UTF-8"?>
<svg id="Capa_2" data-name="Capa 2" xmlns="http://www.w3.org/2000/svg" viewBox="0 0 436.5 267.07">
  <g id="Capa_1-2" data-name="Capa 1">
    <g>
      <g style="opacity: .34;">
        <line x1="13.5" y1="167.27" x2="368.46" y2="167.27" style="fill: #0f1931; stroke: #0f1931; stroke-dasharray: 0 3; stroke-miterlimit: 10;"/>
        <line x1="13.5" y1="14.77" x2="369.09" y2="14.77" style="fill: #0f1931; stroke: #0f1931; stroke-dasharray: 0 3; stroke-miterlimit: 10;"/>
        <line x1="215.93" y1="3.93" x2="215.93" y2="194.94" style="fill: #0f1931; stroke: #0f1931; stroke-dasharray: 0 3; stroke-miterlimit: 10;"/>
        <line x1="256.09" y1="3.93" x2="256.09" y2="194.94" style="fill: #0f1931; stroke: #0f1931; stroke-dasharray: 0 3; stroke-miterlimit: 10;"/>
        <line x1="281.2" y1="3.93" x2="281.2" y2="194.94" style="fill: #0f1931; stroke: #0f1931; stroke-dasharray: 0 3; stroke-miterlimit: 10;"/>
        <line x1="72.33" y1="3.93" x2="72.33" y2="194.94" style="fill: #0f1931; stroke: #0f1931; stroke-dasharray: 0 3; stroke-miterlimit: 10;"/>
        <line x1="36.77" y1="3.93" x2="36.77" y2="194.94" style="fill: #0f1931; stroke: #0f1931; stroke-dasharray: 0 3; stroke-miterlimit: 10;"/>
        <line x1="97.85" y1="3.93" x2="97.85" y2="194.94" style="fill: #0f1931; stroke: #0f1931; stroke-dasharray: 0 3; stroke-miterlimit: 10;"/>
        <line x1="132.16" y1="3.93" x2="132.16" y2="194.94" style="fill: #0f1931; stroke: #0f1931; stroke-dasharray: 0 3; stroke-miterlimit: 10;"/>
        <line x1="157.68" y1="3.93" x2="157.68" y2="194.94" style="fill: #0f1931; stroke: #0f1931; stroke-dasharray: 0 3; stroke-miterlimit: 10;"/>
        <line x1="191.72" y1="3.93" x2="191.72" y2="194.94" style="fill: #0f1931; stroke: #0f1931; stroke-dasharray: 0 3; stroke-miterlimit: 10;"/>
      </g>
      <g>
        <g>
          <text transform="translate(325.26 33.41)" style="fill: #0f1931; font-family: Noirden-Regular, Noirden; font-size: 15.98px;"><tspan x="0" y="0">R</tspan><tspan x="9.78" y="0" style="letter-spacing: -.03em;">e</tspan><tspan x="18.65" y="0" style="letter-spacing: -.03em;">v</tspan><tspan x="26.08" y="0">enu</tspan><tspan x="52.49" y="0" style="letter-spacing: -.03em;">e</tspan><tspan x="61.36" y="0">s</tspan></text>
          <g>
            <g>
              <polyline points=".5 0 .5 189.86 436.5 189.86" style="fill: none; stroke: #0f1931; stroke-miterlimit: 10;"/>
              <rect x=".5" y="189.64" width="23.97" height="68.48" style="fill: #0f1931;"/>
              <rect x="119.21" y="189.64" width="26.29" height="28.36" style="fill: #0f1931;"/>
              <rect x="178.86" y="189.64" width="24.64" height="18.36" style="fill: #0f1931;"/>
              <rect x="243.07" y="189.64" width="25.43" height="37.36" style="fill: #0f1931;"/>
              <g>
                <path d="M1.64,188.5c63.39-4.87,134.54-14.98,211.15-33.8,35.18-8.64,68.34-18.34,99.41-28.63" style="fill: none; stroke: #0f1931; stroke-miterlimit: 10;"/>
                <polygon points="310.3 130.96 309.42 130.47 311.84 126.17 307.37 124.08 307.79 123.18 313.23 125.72 310.3 130.96" style="fill: #0f1931;"/>
              </g>
              <g>
                <path d="M1.55,189.19c64.56-15.38,136.35-43.33,212.49-91.71,35.03-22.26,67.82-46.83,98.36-72.64" style="fill: none; stroke: #0f1931; stroke-miterlimit: 10;"/>
                <polygon points="312.43 30.09 311.44 29.96 312.1 25.07 307.18 24.77 307.24 23.77 313.23 24.14 312.43 30.09" style="fill: #0f1931;"/>
              </g>
            </g>
            <text transform="translate(302.84 149.67)" style="fill: #0f1931; font-family: Noirden-Regular, Noirden; font-size: 15.98px;"><tspan x="0" y="0" style="letter-spacing: -.05em;">C</tspan><tspan x="11.46" y="0" style="letter-spacing: 0em;">osts</tspan></text>
          </g>
        </g>
        <text transform="translate(58.57 258.45)" style="fill: #0f1931; font-family: Noirden-Regular, Noirden; font-size: 15.98px;"><tspan x="0" y="0" style="letter-spacing: -.03em;">F</tspan><tspan x="8.15" y="0" style="letter-spacing: -.02em;">l</tspan><tspan x="11.94" y="0" style="letter-spacing: -.07em;">e</tspan><tspan x="20.2" y="0">xib</tspan><tspan x="40.11" y="0" style="letter-spacing: -.02em;">l</tspan><tspan x="43.89" y="0">e in</tspan><tspan x="66.84" y="0" style="letter-spacing: -.03em;">v</tspan><tspan x="74.27" y="0" style="letter-spacing: -.03em;">e</tspan><tspan x="83.13" y="0">stor models</tspan></text>
      </g>
    </g>
  </g>
</svg>