<?xml version="1.0" encoding="UTF-8"?>
<svg id="Capa_2" data-name="Capa 2" xmlns="http://www.w3.org/2000/svg" viewBox="0 0 343.47 118.5">
  <g id="Capa_1-2" data-name="Capa 1">
    <g>
      <text transform="translate(111.51 29.2)" style="font-size: 24px;"><tspan x="0" y="0" style="fill: #0f1931; font-family: Noirden-Regular, Noirden;">60</tspan><tspan x="29.11" y="0" style="fill: #0f1931; font-family: MyriadPro-Regular, &apos;Myriad Pro&apos;;">–</tspan><tspan x="41.11" y="0" style="fill: #0f1931; font-family: Noirden-Regular, Noirden;">70% </tspan><tspan x="88.2" y="0" style="fill: #0f1931; font-family: Noirden-Regular, Noirden; letter-spacing: -.02em;">F</tspan><tspan x="100.85" y="0" style="fill: #0f1931; font-family: Noirden-Regular, Noirden;">as</tspan><tspan x="126.02" y="0" style="fill: #0f1931; font-family: Noirden-Regular, Noirden; letter-spacing: -.03em;">t</tspan><tspan x="133.97" y="0" style="fill: #0f1931; font-family: Noirden-Regular, Noirden;">er Builds</tspan><tspan x="222.14" y="0" style="fill: #0f1931; font-family: Noirden-Bold, &apos;Noirden Bold&apos;;"> </tspan><tspan x="227.23" y="0" style="font-family: Noirden-Regular, Noirden;"> </tspan></text>
      <text transform="translate(0 105.96)" style="fill: #0f1931; font-family: Noirden-Regular, Noirden; font-size: 14px;"><tspan x="0" y="0">Time</tspan></text>
      <polyline points="1.51 .5 1.51 90.86 339.31 90.86" style="fill: none; stroke: #0f1931; stroke-linecap: round; stroke-linejoin: round;"/>
      <g>
        <path d="M107.48,66.54c-1.16,0-2.05,.41-2.68,1.22-.65,.79-.97,1.9-.97,3.31s.34,2.45,.99,3.26c.68,.82,1.59,1.22,2.77,1.22s2.1-.38,2.75-1.15c.65-.77,.99-1.85,.99-3.29v-.19c0-1.39-.36-2.47-1.04-3.24-.7-.77-1.64-1.15-2.82-1.15Z" style="fill: #0f1931;"/>
        <path d="M167.16,66.54c-1.18,0-2.07,.41-2.7,1.2-.63,.82-.94,1.92-.94,3.34s.31,2.45,.99,3.26c.65,.82,1.57,1.22,2.75,1.22s2.1-.38,2.75-1.15c.65-.77,.99-1.85,.99-3.29v-.19c0-1.39-.36-2.47-1.04-3.24-.7-.77-1.64-1.15-2.8-1.15Z" style="fill: #0f1931;"/>
        <path d="M140.14,66.57c-1.18,0-2.1,.41-2.75,1.22-.65,.82-.99,1.92-.99,3.31s.34,2.42,.99,3.22c.65,.82,1.57,1.22,2.75,1.22s2.1-.41,2.75-1.22c.68-.82,.99-1.82,.99-3.22s-.31-2.5-.99-3.29c-.65-.84-1.57-1.25-2.75-1.25Z" style="fill: #0f1931;"/>
        <path d="M93.12,66.54c-1.18,0-2.08,.41-2.7,1.2-.63,.82-.94,1.92-.94,3.34s.31,2.45,.99,3.26c.65,.82,1.57,1.22,2.75,1.22s2.1-.38,2.75-1.15c.65-.77,.99-1.85,.99-3.29v-.19c0-1.39-.36-2.47-1.04-3.24-.7-.77-1.64-1.15-2.8-1.15Z" style="fill: #0f1931;"/>
        <path d="M247.73,57.5H1.51v24H247.73c4,0,7.24-3.22,7.24-7.2v-9.6c0-3.98-3.24-7.2-7.24-7.2Zm-169.25,5.13h-5.09v15.03h-2.73v-15.03h-5.09v-2.47h12.91v2.47Zm8.15,3.5v.65h-.89c-1.16,0-2.05,.36-2.68,1.1-.6,.72-.92,1.73-.92,2.98v6.79h-2.58v-13.15h2.39v1.99c1.04-1.34,2.53-1.99,4.46-1.99h.22v1.63Zm12.91,10.3v1.18h-2.39v-1.82c-1.13,1.39-2.51,2.09-4.15,2.09-1.88,0-3.38-.62-4.49-1.85-1.09-1.22-1.64-2.83-1.64-4.9s.53-3.84,1.59-5.04c1.06-1.22,2.56-1.82,4.51-1.82,1.59,0,2.92,.53,3.98,1.61v-1.37h2.58v11.93Zm14.38,1.22h-2.39v-1.87c-1.13,1.39-2.53,2.09-4.17,2.09-1.86,0-3.35-.62-4.46-1.85-1.09-1.22-1.64-2.83-1.64-4.9s.53-3.84,1.59-5.04c1.06-1.22,2.56-1.82,4.49-1.82,1.59,0,2.92,.53,4.01,1.61v-5.71h2.58v17.5Zm4.36,0h-2.58v-13.15h2.58v13.15Zm0-15.03h-2.58v-2.21h2.58v2.21Zm9.89,4.25h-4.22v6.55c0,.55,.14,1.01,.48,1.34,.31,.34,.72,.5,1.25,.5h2.49v2.38h-2.58c-1.3,0-2.34-.38-3.09-1.15-.77-.74-1.16-1.78-1.16-3.07v-6.55h-2.07v-2.33h2.07v-4.39h2.61v4.39h4.22v2.33Zm4.08,10.78h-2.58v-13.15h2.58v13.15Zm0-15.03h-2.58v-2.21h2.58v2.21Zm12.52,13.39c-1.13,1.25-2.68,1.85-4.63,1.85s-3.5-.6-4.63-1.85c-1.13-1.22-1.69-2.81-1.69-4.92s.56-3.77,1.69-5.02c1.13-1.22,2.7-1.82,4.63-1.82s3.5,.6,4.63,1.85c1.13,1.22,1.71,2.9,1.71,4.99s-.58,3.7-1.71,4.92Zm14.6,1.63h-2.61v-7.66c0-1.2-.19-2.06-.58-2.62-.39-.58-1.11-.84-2.15-.84-1.11,0-1.95,.29-2.51,.89-.58,.6-.87,1.46-.87,2.57v7.66h-2.58v-13.15h2.39v1.7c.92-1.3,2.17-1.94,3.76-1.94,1.76,0,3.04,.48,3.89,1.42,.82,.94,1.25,2.35,1.25,4.2v7.78Zm14.21-1.22v1.18h-2.39v-1.82c-1.13,1.39-2.51,2.09-4.15,2.09-1.88,0-3.38-.62-4.49-1.85-1.09-1.22-1.64-2.83-1.64-4.9s.53-3.84,1.59-5.04c1.06-1.22,2.56-1.82,4.51-1.82,1.59,0,2.92,.53,3.98,1.61v-1.37h2.58v11.93Zm7.6,1.22h-1.91c-1.11,0-1.98-.31-2.61-.91-.65-.62-.96-1.46-.96-2.52v-14.07h2.58v14.07c0,.31,.1,.58,.29,.77,.19,.19,.46,.29,.8,.29h1.81v2.38Z" style="fill: #0f1931;"/>
      </g>
      <path d="M94.31,12.5H1.51v24H94.31c3.98,0,7.2-3.22,7.2-7.2v-9.6c0-3.98-3.22-7.2-7.2-7.2Zm-45.04,13.07c0,1.1-.12,2.06-.34,2.9-.24,.84-.55,1.54-.94,2.09-.38,.55-.89,.98-1.46,1.34s-1.2,.6-1.85,.74c-.65,.14-1.39,.22-2.18,.22-1.01,0-1.92-.12-2.71-.36-.79-.24-1.49-.62-2.11-1.18-.65-.55-1.13-1.3-1.46-2.28-.34-.96-.5-2.11-.5-3.48V15.16h2.71l.02,10.42c0,1.56,.34,2.76,.96,3.58,.62,.84,1.66,1.25,3.1,1.25s2.47-.41,3.1-1.25c.62-.82,.94-2.02,.94-3.58V15.16h2.74v10.42Zm10.78,6.22c-.91,.72-2.18,1.08-3.79,1.08-1.06,0-2.04-.17-2.93-.55-.89-.36-1.63-.86-2.26-1.46l1.58-1.78s.14,.12,.41,.31c.41,.34,.91,.6,1.46,.84,.55,.22,1.13,.34,1.68,.34,.89,0,1.54-.17,1.97-.48,.46-.31,.67-.74,.67-1.27,0-.43-.17-.84-.53-1.15-.34-.34-.84-.55-1.46-.65-.22-.05-.55-.12-1.03-.22-.48-.1-.86-.17-1.15-.24-1.03-.22-1.85-.62-2.45-1.25-.6-.65-.91-1.39-.91-2.26,0-1.18,.46-2.11,1.32-2.83,.86-.7,2.04-1.03,3.53-1.03,1.03,0,1.97,.19,2.81,.58,.82,.41,1.44,.84,1.87,1.34l-1.61,1.73s-.1-.1-.38-.34c-.84-.7-1.8-1.03-2.93-1.03-.65,0-1.15,.12-1.54,.38-.38,.26-.58,.62-.58,1.06,0,.31,.12,.6,.36,.86,.22,.24,.55,.41,.94,.48l2.14,.48c1.3,.29,2.33,.79,3.07,1.51,.72,.74,1.1,1.58,1.1,2.57,0,1.25-.46,2.23-1.37,2.98Z" style="fill: #0f1931;"/>
      <polygon points="104.51 64.5 96.51 64.5 96.51 62.5 106.51 63.5 109.51 63.5 109.51 63.5 109.51 63.5 109.51 63.5 108.51 63.5 109.51 63.5 110.7 63.5 111.03 63.5 104.51 64.5" style="fill: #0f1931;"/>
    </g>
  </g>
</svg>