<?xml version="1.0" encoding="UTF-8"?>
<svg id="Capa_2" data-name="Capa 2" xmlns="http://www.w3.org/2000/svg" viewBox="0 0 327.42 179.11">
  <g id="Capa_1-2" data-name="Capa 1">
    <polyline points=".5 5.87 .5 178.61 323.52 178.61" style="fill: none; stroke: #0f1931; stroke-linecap: round; stroke-miterlimit: 10;"/>
    <circle cx="43.92" cy="124.11" r="1.5" style="fill: #0f1931;"/>
    <circle cx="92.92" cy="111.11" r="1.5" style="fill: #0f1931;"/>
    <circle cx="140.92" cy="83.11" r="1.5" style="fill: #0f1931;"/>
    <circle cx="197.92" cy="62.11" r="1.5" style="fill: #0f1931;"/>
    <circle cx="253.92" cy="26.11" r="1.5" style="fill: #0f1931;"/>
    <polyline points=".5 132.35 43.92 124.11 92.92 111.11 140.92 83.11 197.92 62.11 253.92 26.11 278.92 6.11" style="fill: none; stroke: #0f1931; stroke-miterlimit: 10; stroke-width: .5px;"/>
    <text transform="translate(284.2 19.95)" style="font-family: Noirden-Regular, Noirden; font-size: 21px;"><tspan x="0" y="0">ROI</tspan></text>
    <g style="opacity: .69;">
      <g>
        <line x1="43.92" y1="5.61" x2="43.92" y2="7.11" style="fill: none; stroke: #0f1931; stroke-miterlimit: 10; stroke-width: .25px;"/>
        <line x1="43.91" y1="10.08" x2="43.43" y2="174.63" style="fill: none; stroke: #0f1931; stroke-dasharray: 0 0 2.96 2.96; stroke-miterlimit: 10; stroke-width: .25px;"/>
        <line x1="43.42" y1="176.11" x2="43.42" y2="177.61" style="fill: none; stroke: #0f1931; stroke-miterlimit: 10; stroke-width: .25px;"/>
      </g>
      <g>
        <line x1="279.42" y1="124.57" x2="277.92" y2="124.57" style="fill: none; stroke: #0f1931; stroke-miterlimit: 10; stroke-width: .25px;"/>
        <line x1="274.89" y1="124.57" x2="3.98" y2="124.57" style="fill: none; stroke: #0f1931; stroke-dasharray: 0 0 3.03 3.03; stroke-miterlimit: 10; stroke-width: .25px;"/>
        <line x1="2.46" y1="124.57" x2=".96" y2="124.57" style="fill: none; stroke: #0f1931; stroke-miterlimit: 10; stroke-width: .25px;"/>
      </g>
      <g>
        <line x1="279.42" y1="111.57" x2="277.92" y2="111.57" style="fill: none; stroke: #0f1931; stroke-miterlimit: 10; stroke-width: .25px;"/>
        <line x1="274.89" y1="111.57" x2="3.98" y2="111.57" style="fill: none; stroke: #0f1931; stroke-dasharray: 0 0 3.03 3.03; stroke-miterlimit: 10; stroke-width: .25px;"/>
        <line x1="2.46" y1="111.57" x2=".96" y2="111.57" style="fill: none; stroke: #0f1931; stroke-miterlimit: 10; stroke-width: .25px;"/>
      </g>
      <g>
        <line x1="279.42" y1="83.57" x2="277.92" y2="83.57" style="fill: none; stroke: #0f1931; stroke-miterlimit: 10; stroke-width: .25px;"/>
        <line x1="274.89" y1="83.57" x2="3.98" y2="83.57" style="fill: none; stroke: #0f1931; stroke-dasharray: 0 0 3.03 3.03; stroke-miterlimit: 10; stroke-width: .25px;"/>
        <line x1="2.46" y1="83.57" x2=".96" y2="83.57" style="fill: none; stroke: #0f1931; stroke-miterlimit: 10; stroke-width: .25px;"/>
      </g>
      <g>
        <line x1="279.42" y1="62.57" x2="277.92" y2="62.57" style="fill: none; stroke: #0f1931; stroke-miterlimit: 10; stroke-width: .25px;"/>
        <line x1="274.89" y1="62.57" x2="3.98" y2="62.57" style="fill: none; stroke: #0f1931; stroke-dasharray: 0 0 3.03 3.03; stroke-miterlimit: 10; stroke-width: .25px;"/>
        <line x1="2.46" y1="62.57" x2=".96" y2="62.57" style="fill: none; stroke: #0f1931; stroke-miterlimit: 10; stroke-width: .25px;"/>
      </g>
      <g>
        <line x1="92.92" y1="5.61" x2="92.92" y2="7.11" style="fill: none; stroke: #0f1931; stroke-miterlimit: 10; stroke-width: .25px;"/>
        <line x1="92.91" y1="10.08" x2="92.43" y2="174.63" style="fill: none; stroke: #0f1931; stroke-dasharray: 0 0 2.96 2.96; stroke-miterlimit: 10; stroke-width: .25px;"/>
        <line x1="92.42" y1="176.11" x2="92.42" y2="177.61" style="fill: none; stroke: #0f1931; stroke-miterlimit: 10; stroke-width: .25px;"/>
      </g>
      <g>
        <line x1="140.92" y1="5.61" x2="140.92" y2="7.11" style="fill: none; stroke: #0f1931; stroke-miterlimit: 10; stroke-width: .25px;"/>
        <line x1="140.91" y1="10.08" x2="140.43" y2="174.63" style="fill: none; stroke: #0f1931; stroke-dasharray: 0 0 2.96 2.96; stroke-miterlimit: 10; stroke-width: .25px;"/>
        <line x1="140.42" y1="176.11" x2="140.42" y2="177.61" style="fill: none; stroke: #0f1931; stroke-miterlimit: 10; stroke-width: .25px;"/>
      </g>
      <g>
        <line x1="197.92" y1="5.61" x2="197.92" y2="7.11" style="fill: none; stroke: #0f1931; stroke-miterlimit: 10; stroke-width: .25px;"/>
        <line x1="197.91" y1="10.08" x2="197.43" y2="174.63" style="fill: none; stroke: #0f1931; stroke-dasharray: 0 0 2.96 2.96; stroke-miterlimit: 10; stroke-width: .25px;"/>
        <line x1="197.42" y1="176.11" x2="197.42" y2="177.61" style="fill: none; stroke: #0f1931; stroke-miterlimit: 10; stroke-width: .25px;"/>
      </g>
      <g>
        <line x1="253.92" y1="5.61" x2="253.92" y2="7.11" style="fill: none; stroke: #0f1931; stroke-miterlimit: 10; stroke-width: .25px;"/>
        <line x1="253.91" y1="10.08" x2="253.43" y2="174.63" style="fill: none; stroke: #0f1931; stroke-dasharray: 0 0 2.96 2.96; stroke-miterlimit: 10; stroke-width: .25px;"/>
        <line x1="253.42" y1="176.11" x2="253.42" y2="177.61" style="fill: none; stroke: #0f1931; stroke-miterlimit: 10; stroke-width: .25px;"/>
      </g>
    </g>
  </g>
</svg>